# xmcd
#
# Track frame offsets: 
#        150
#        19445
#        38968
#        60316
#        74948
#        99398
#        119058
#        135376
#        158130
#        176039
#
# Disc length: 2591 seconds
#
# Revision: 1
# Processed by: cddbd v1.5.2PL0 Copyright (c) Steve Scherf et al.
# Submitted via: ExactAudioCopyFreeDBPlugin 1.0
#
DISCID=910a1d0a
DTITLE=Trịnh Công Sơn - Như tiếng thở dài
DYEAR=1997
DGENRE=Vietnamese
TTITLE0=Em đi bỏ mặc con đường
TTITLE1=Ra đồng giữa ngọ
TTITLE2=Xin trả nợ người
TTITLE3=Bống không là bống
TTITLE4=Tôi ơi đừng tuyệt vọng
TTITLE5=Có một ngày như thế
TTITLE6=Hoa xuân ca
TTITLE7=Như tiếng thở dài
TTITLE8=Hôm nay tôi nghe
TTITLE9=Chiếc lá thu phai
EXTD=
EXTT0=
EXTT1=
EXTT2=
EXTT3=
EXTT4=
EXTT5=
EXTT6=
EXTT7=
EXTT8=
EXTT9=
PLAYORDER=
